<?xml version="1.0" standalone="no"?>
<!DOCTYPE svg PUBLIC "-//W3C//DTD SVG 20010904//EN"
 "http://www.w3.org/TR/2001/REC-SVG-20010904/DTD/svg10.dtd">
<svg version="1.0" xmlns="http://www.w3.org/2000/svg"
 width="899.000000pt" height="899.000000pt" viewBox="0 0 899.000000 899.000000"
 preserveAspectRatio="xMidYMid meet">
<metadata>
Created by potrace 1.11, written by Peter Selinger 2001-2013
</metadata>
<g transform="translate(0.000000,899.000000) scale(0.100000,-0.100000)"
fill="#000000" stroke="none">
<path d="M2520 8976 c-183 -53 -290 -190 -306 -391 -11 -132 26 -248 145 -445
38 -63 67 -116 66 -118 -1 -1 -35 12 -75 29 -236 100 -467 61 -707 -120 -154
-116 -235 -216 -448 -551 -240 -379 -371 -515 -678 -704 -34 -21 -31 -25 20
-37 114 -27 304 -4 472 56 l74 27 21 -22 21 -22 -73 -69 c-114 -107 -227 -186
-357 -252 l-30 -15 72 -22 c253 -77 533 -22 808 159 38 25 128 92 198 148 71
57 140 106 153 109 61 15 153 -34 260 -138 l52 -50 -31 -66 c-28 -61 -32 -78
-37 -196 l-5 -130 -115 -43 c-355 -132 -427 -168 -520 -263 -149 -151 -177
-347 -79 -542 40 -79 132 -171 204 -204 l55 -25 0 -137 c0 -75 2 -236 4 -357
l4 -219 27 -23 c33 -29 68 -29 106 -2 l29 20 0 354 0 353 57 7 c160 20 290
109 353 241 34 71 50 161 50 290 l0 91 138 38 c195 53 353 108 409 140 69 41
157 134 192 207 18 35 39 102 48 148 9 47 17 90 19 96 1 6 139 62 306 124 166
62 319 122 338 133 90 53 158 135 187 224 l16 52 111 -7 c141 -9 742 -9 861 0
l91 6 23 -65 c17 -46 39 -81 79 -124 70 -76 132 -106 483 -235 l267 -98 6 -58
c8 -83 42 -173 91 -248 93 -140 161 -177 520 -281 93 -27 173 -53 177 -57 4
-4 10 -64 13 -134 6 -133 24 -214 62 -277 63 -100 183 -178 312 -202 49 -8 72
-17 75 -28 2 -9 4 -128 4 -266 1 -451 -1 -413 27 -440 37 -38 117 -27 131 18
12 38 12 54 13 383 l1 331 53 24 c67 31 174 138 209 209 113 229 54 455 -156
604 -84 60 -132 82 -356 166 -107 40 -198 77 -201 81 -3 5 -6 55 -7 112 -3
126 -7 147 -43 219 l-29 56 73 66 c74 69 172 126 214 126 34 0 74 -23 146 -83
115 -96 152 -124 237 -179 207 -135 370 -188 574 -189 108 -1 148 5 249 38
l48 15 -87 49 c-108 61 -219 143 -304 226 l-64 63 20 21 21 21 86 -31 c47 -16
121 -37 164 -46 122 -25 320 -19 330 11 2 6 -47 42 -109 80 -89 54 -137 94
-228 184 -135 134 -217 242 -360 470 -123 195 -184 284 -254 365 -186 219
-425 348 -641 349 -97 0 -150 -11 -259 -56 -38 -15 -70 -28 -72 -28 -2 0 19
37 47 82 64 102 133 240 147 293 18 68 24 177 13 245 -23 140 -103 248 -229
308 -63 30 -87 36 -165 40 -116 6 -186 -9 -288 -60 -81 -40 -161 -111 -336
-298 -33 -36 -96 -99 -140 -140 -94 -88 -104 -112 -129 -289 -14 -104 -29
-160 -77 -286 -16 -43 -13 -65 11 -65 8 0 60 45 116 100 81 79 118 107 181
139 156 76 205 143 205 275 0 101 18 135 134 252 99 100 150 131 235 141 127
15 224 -85 225 -232 2 -139 -36 -197 -299 -465 -100 -102 -189 -199 -198 -215
-67 -133 -66 -340 4 -477 52 -102 125 -153 299 -208 73 -23 134 -48 145 -59
41 -47 -14 -211 -98 -288 -32 -30 -60 -44 -112 -58 -140 -37 -248 -107 -326
-214 l-24 -33 -265 97 c-146 54 -286 108 -311 121 -71 36 -150 137 -116 149 7
3 54 11 104 20 244 41 412 104 458 173 94 138 -95 244 -545 306 -19 2 -75 7
-125 11 -49 4 -101 9 -115 11 -48 9 -786 12 -920 4 -481 -30 -774 -101 -852
-205 -60 -80 -1 -168 151 -226 54 -20 199 -54 345 -81 38 -7 71 -18 73 -24 5
-16 -57 -95 -96 -121 -36 -24 -145 -68 -424 -169 l-182 -66 -20 28 c-75 108
-186 182 -330 220 -58 15 -78 26 -115 64 -71 71 -121 193 -106 255 8 31 47 51
199 99 98 32 125 45 166 82 104 94 142 188 142 359 0 185 -13 209 -250 450
-245 250 -293 323 -295 445 -2 127 70 231 170 246 97 14 184 -27 295 -139 101
-102 120 -139 126 -240 2 -45 9 -97 15 -115 16 -52 94 -123 188 -171 68 -34
105 -62 186 -142 144 -141 170 -134 105 27 -22 55 -42 126 -46 159 -26 247
-46 291 -185 405 -30 25 -77 70 -105 100 -256 281 -347 339 -555 346 -68 2
-121 -1 -150 -10z m2255 -1721 c181 -28 236 -52 205 -90 -16 -19 -55 -19 -155
0 -198 38 -462 38 -663 0 -99 -19 -141 -17 -156 8 -16 26 11 43 100 62 193 44
468 52 669 20z m-2426 -280 c43 -22 98 -92 121 -152 11 -30 20 -57 20 -61 0
-5 -17 -14 -37 -21 -21 -7 -62 -28 -90 -47 -29 -19 -56 -34 -59 -34 -17 0
-135 109 -149 137 -14 28 -14 36 -1 67 8 18 35 55 61 80 52 50 84 58 134 31z
m4414 -16 c51 -42 91 -112 83 -145 -7 -26 -102 -123 -141 -144 -18 -10 -28 -7
-67 19 -25 17 -66 39 -92 50 -25 11 -46 23 -46 25 0 24 47 119 74 150 73 83
127 96 189 45z m-4071 -370 c29 -6 76 -22 103 -36 52 -25 115 -79 115 -97 0
-11 -76 -42 -420 -170 l-175 -65 -3 70 c-4 84 17 136 79 204 83 90 178 120
301 94z m3812 -22 c64 -30 121 -87 153 -154 19 -42 23 -64 21 -121 l-3 -70
-297 111 c-164 61 -298 115 -298 120 0 20 72 79 124 103 107 49 209 53 300 11z
m-3579 -334 c-19 -79 -98 -183 -164 -218 -50 -25 -403 -135 -435 -135 -13 0
-16 12 -16 79 l0 79 68 26 c229 86 529 195 541 195 9 1 11 -7 6 -26z m3466
-87 c154 -57 282 -106 285 -109 8 -7 7 -147 0 -154 -9 -9 -84 11 -273 73 -167
54 -206 74 -257 128 -29 32 -86 140 -86 165 0 19 12 15 331 -103z m-4253 -247
l-3 -72 -80 -26 c-110 -36 -159 -64 -222 -127 -78 -78 -138 -219 -144 -339 -4
-72 -14 -76 -61 -25 -63 69 -92 141 -92 225 0 53 6 81 22 113 31 59 112 134
185 171 65 33 363 149 385 150 10 1 12 -17 10 -70z m4894 10 c90 -34 189 -75
221 -92 133 -70 213 -186 205 -295 -2 -32 -15 -82 -30 -113 -24 -53 -91 -139
-108 -139 -4 0 -11 26 -15 58 -31 260 -154 414 -383 478 -34 9 -63 20 -63 23
-4 18 -5 127 -2 134 6 10 -6 13 175 -54z m-4896 -372 c-11 -167 -62 -241 -195
-281 -91 -27 -94 -25 -87 42 16 130 59 230 121 278 41 31 145 75 158 67 6 -4
7 -47 3 -106z m4804 82 c121 -55 184 -157 192 -314 l3 -60 -40 2 c-22 2 -67
16 -100 33 -66 33 -106 80 -124 145 -11 45 -22 195 -15 207 8 13 36 9 84 -13z"/>
<path d="M4410 7884 c-137 -20 -238 -66 -319 -147 -58 -58 -108 -151 -117
-221 l-7 -46 134 7 c173 9 616 9 788 0 l134 -7 -7 46 c-20 152 -145 287 -312
340 -70 22 -227 37 -294 28z"/>
<path d="M3720 7673 c-32 -12 -70 -57 -70 -84 0 -32 69 -124 105 -141 32 -14
72 -3 106 32 26 25 28 31 18 59 -14 41 -106 141 -128 140 -9 0 -23 -3 -31 -6z"/>
<path d="M5175 7626 c-59 -62 -70 -85 -61 -122 7 -28 60 -64 93 -64 44 0 147
119 136 159 -7 27 -53 68 -86 77 -26 6 -35 0 -82 -50z"/>
<path d="M4435 6634 c-24 -26 -25 -33 -25 -158 l0 -131 -142 1 c-164 1 -213
-6 -233 -32 -22 -29 -18 -79 8 -108 22 -25 23 -26 195 -27 l172 -2 0 -93 0
-94 -215 -1 c-118 -1 -220 -2 -226 -3 -5 0 -21 -12 -35 -25 -32 -31 -32 -79 1
-115 l24 -26 226 0 225 0 0 -153 0 -152 -63 -12 c-162 -31 -395 -136 -557
-251 -113 -80 -332 -295 -417 -408 -310 -417 -492 -957 -554 -1644 -14 -153
-16 -804 -3 -836 5 -11 45 -51 89 -90 262 -227 449 -501 573 -839 88 -242 136
-471 167 -809 3 -33 8 -62 11 -65 3 -3 171 -6 374 -6 203 0 371 -3 374 -6 3
-3 6 -107 6 -232 1 -124 6 -241 11 -260 13 -50 81 -74 120 -44 34 26 38 52 39
292 0 131 2 241 5 243 2 2 171 5 375 7 204 1 373 5 377 9 3 3 7 18 9 33 1 16
5 57 8 93 51 572 232 1043 531 1383 76 87 181 188 254 247 l44 36 2 299 c2
377 -5 512 -41 795 -94 737 -402 1365 -849 1730 -197 161 -446 284 -651 322
l-64 11 0 154 0 153 221 0 c132 0 228 4 240 10 30 17 47 60 38 96 -16 57 -21
59 -271 62 l-228 3 0 94 0 94 168 0 c144 1 170 3 191 19 31 23 40 50 29 89
-15 56 -11 55 -370 63 -14 0 -17 17 -20 136 -3 129 -4 137 -27 155 -34 28 -87
25 -116 -7z m199 -1670 c223 -37 473 -226 641 -484 217 -334 325 -742 325
-1230 0 -202 -1 -215 -26 -390 -83 -572 -372 -1056 -739 -1238 -116 -58 -175
-73 -305 -79 -145 -6 -232 11 -355 70 -382 185 -663 647 -761 1252 -22 134
-28 570 -10 710 36 272 107 513 216 730 246 491 610 727 1014 659z"/>
<path d="M4382 4770 c-23 -5 -77 -24 -120 -42 l-77 -33 -3 -262 -2 -263 -222
-2 -221 -3 -38 -95 c-49 -121 -112 -356 -125 -462 l-6 -48 63 -1 c35 -1 168
-2 294 -4 127 -1 236 -3 243 -4 9 -1 12 -70 12 -311 0 -288 -1 -310 -17 -311
-10 0 -147 -1 -305 -2 l-288 -2 0 -27 c0 -79 72 -356 132 -510 l31 -78 223 0
224 0 0 -264 0 -264 33 -20 c68 -43 180 -72 274 -72 104 1 151 10 250 51 l73
31 0 269 0 269 224 0 225 0 32 83 c45 117 66 183 90 284 27 111 48 243 40 244
-3 1 -139 3 -301 5 -162 2 -298 3 -302 3 -5 1 -8 142 -8 315 l0 313 307 2
c169 1 308 2 309 4 1 1 -11 65 -27 142 -26 130 -80 306 -128 418 l-20 47 -221
0 -220 0 0 260 0 260 -42 21 c-112 57 -276 82 -386 59z m419 -627 c3 -78 4
-561 1 -570 -3 -10 -74 -13 -308 -13 l-304 0 0 300 0 300 305 0 c284 0 305 -1
306 -17z m-4 -1236 c3 -4 7 -137 7 -297 l1 -290 -307 0 -308 0 0 298 0 297
300 -1 c165 0 303 -4 307 -7z"/>
<path d="M1726 4091 c-18 -20 -130 -323 -141 -383 -9 -47 17 -102 55 -118 19
-8 74 -11 159 -8 149 3 168 13 178 84 6 50 -98 372 -135 415 -29 35 -89 40
-116 10z"/>
<path d="M7158 4093 c-25 -29 -35 -52 -93 -224 -57 -169 -63 -196 -43 -232 27
-51 41 -56 181 -56 155 0 180 9 198 69 11 37 9 51 -45 215 -69 210 -86 239
-142 243 -29 2 -44 -2 -56 -15z"/>
<path d="M1473 3336 c-31 -27 -152 -375 -146 -421 5 -42 35 -79 69 -85 16 -4
84 -5 152 -4 138 2 150 7 170 71 10 34 7 51 -43 200 -54 160 -85 236 -104 247
-26 17 -74 13 -98 -8z"/>
<path d="M1999 3345 c-15 -8 -32 -29 -39 -47 -46 -126 -120 -353 -120 -370 0
-11 7 -35 16 -54 21 -45 52 -52 203 -49 111 2 124 5 146 25 49 46 40 101 -62
384 -32 88 -39 100 -69 112 -40 17 -42 17 -75 -1z"/>
<path d="M6924 3348 c-38 -10 -51 -36 -125 -259 -56 -168 -57 -187 -15 -236
23 -27 24 -27 157 -29 75 0 144 4 157 9 29 13 52 56 52 96 0 34 -109 357 -133
394 -18 28 -49 37 -93 25z"/>
<path d="M7442 3352 c-12 -2 -30 -15 -39 -29 -24 -37 -133 -360 -133 -395 0
-37 26 -83 54 -96 12 -5 81 -8 154 -7 121 2 135 5 157 25 47 44 38 103 -51
345 -55 149 -73 169 -142 157z"/>
<path d="M1222 2584 c-27 -19 -40 -48 -103 -237 -51 -153 -57 -189 -38 -230
20 -43 49 -50 194 -50 l135 0 25 29 c41 48 39 73 -27 267 -27 82 -56 165 -64
184 -21 50 -79 68 -122 37z"/>
<path d="M1747 2593 c-23 -6 -45 -51 -100 -208 -67 -190 -73 -216 -58 -253 26
-61 38 -66 186 -65 73 1 142 4 152 7 32 10 56 63 50 110 -6 44 -81 273 -115
348 -27 61 -56 76 -115 61z"/>
<path d="M2263 2590 c-12 -5 -31 -26 -41 -47 -30 -59 -122 -348 -122 -382 0
-20 10 -42 29 -63 l29 -32 142 0 143 0 23 29 c41 52 39 74 -28 273 -34 101
-69 193 -77 203 -19 23 -67 32 -98 19z"/>
<path d="M6662 2593 c-29 -6 -49 -50 -115 -243 -54 -160 -59 -186 -42 -227 20
-48 45 -56 186 -57 138 0 168 8 188 51 20 44 12 90 -49 265 -72 209 -86 226
-168 211z"/>
<path d="M7156 2577 c-23 -23 -114 -269 -136 -367 -14 -65 -4 -100 36 -127 24
-15 48 -17 162 -16 88 2 139 6 149 14 20 17 43 64 43 87 0 21 -91 300 -120
367 -29 67 -89 87 -134 42z"/>
<path d="M7683 2588 c-24 -12 -37 -42 -110 -253 -58 -169 -58 -223 4 -256 19
-10 130 -15 254 -10 52 2 89 41 89 95 0 38 -51 206 -109 357 -28 73 -70 95
-128 67z"/>
<path d="M968 1833 c-34 -9 -163 -372 -155 -436 10 -76 39 -88 204 -88 135 0
161 9 183 61 17 40 9 76 -61 270 -37 104 -66 171 -80 183 -20 16 -54 20 -91
10z"/>
<path d="M1482 1833 c-20 -8 -46 -66 -100 -228 -66 -197 -68 -220 -23 -266
l29 -29 137 0 137 0 29 29 c41 42 38 82 -20 252 -58 174 -73 210 -95 232 -17
16 -66 22 -94 10z"/>
<path d="M1998 1833 c-20 -5 -60 -100 -117 -275 -44 -136 -47 -157 -30 -191
26 -50 46 -57 181 -57 70 0 138 4 152 10 15 5 34 25 43 45 14 29 15 42 5 82
-22 97 -116 348 -138 370 -22 22 -54 27 -96 16z"/>
<path d="M2508 1826 c-10 -7 -26 -33 -37 -58 -22 -51 -111 -319 -115 -346 -5
-28 14 -71 41 -92 23 -18 41 -20 163 -20 l138 0 26 31 c42 49 40 70 -26 264
-57 169 -80 220 -103 229 -27 10 -69 6 -87 -8z"/>
<path d="M6387 1828 c-21 -17 -45 -74 -101 -245 -53 -163 -56 -200 -22 -240
24 -28 26 -28 156 -31 85 -2 142 1 160 8 31 13 53 56 52 99 -1 32 -61 222
-103 324 -32 80 -48 97 -94 97 -17 0 -39 -6 -48 -12z"/>
<path d="M6903 1825 c-20 -14 -62 -116 -116 -285 -38 -117 -40 -135 -22 -173
23 -50 51 -58 192 -58 135 -1 165 9 183 57 16 42 12 72 -30 195 -64 189 -89
251 -108 265 -23 18 -73 17 -99 -1z"/>
<path d="M7411 1819 c-25 -28 -131 -330 -138 -396 -5 -48 -3 -54 25 -82 l30
-31 131 0 c71 0 141 5 154 11 63 29 63 90 -2 279 -64 188 -77 217 -100 230
-32 17 -79 12 -100 -11z"/>
<path d="M7927 1818 c-26 -27 -138 -349 -140 -402 -1 -44 18 -81 51 -95 40
-19 269 -15 299 4 32 21 46 61 39 110 -8 65 -117 365 -139 386 -29 26 -82 25
-110 -3z"/>
<path d="M693 1061 c-19 -20 -143 -372 -143 -405 0 -35 31 -84 60 -94 31 -11
266 -10 291 1 22 11 49 61 49 92 0 31 -93 311 -122 370 -12 22 -26 43 -32 47
-23 15 -85 8 -103 -11z"/>
<path d="M1218 1070 c-29 -17 -148 -356 -148 -420 0 -37 22 -71 55 -88 32 -16
279 -9 301 8 35 30 45 73 29 131 -27 103 -113 340 -130 359 -20 22 -78 27
-107 10z"/>
<path d="M1728 1063 c-8 -10 -18 -24 -22 -31 -15 -25 -126 -357 -126 -375 0
-11 7 -34 16 -53 12 -25 26 -36 53 -43 47 -13 216 -13 263 0 49 13 73 55 65
114 -9 61 -117 361 -139 385 -24 26 -89 27 -110 3z"/>
<path d="M2248 1068 c-28 -21 -148 -356 -148 -413 0 -46 27 -83 68 -94 54 -15
266 -8 287 9 26 22 43 62 39 95 -5 48 -112 357 -132 385 -22 29 -86 39 -114
18z"/>
<path d="M2756 1061 c-18 -20 -107 -258 -131 -352 -13 -51 -14 -63 -1 -92 24
-58 43 -65 178 -65 153 1 166 4 189 42 28 45 24 77 -25 221 -67 199 -86 244
-106 255 -31 16 -85 12 -104 -9z"/>
<path d="M6128 1068 c-27 -20 -148 -358 -148 -412 0 -30 30 -83 53 -93 29 -13
237 -14 281 -2 25 7 39 19 51 46 16 34 16 39 0 102 -29 108 -104 314 -123 341
-22 29 -86 39 -114 18z"/>
<path d="M6638 1063 c-29 -35 -138 -348 -141 -405 -2 -49 29 -90 74 -99 18 -4
87 -6 153 -5 117 2 119 3 144 31 21 25 24 36 19 84 -5 57 -102 342 -132 387
-12 19 -24 24 -59 24 -28 0 -48 -6 -58 -17z"/>
<path d="M7154 1061 c-23 -21 -144 -369 -144 -414 0 -15 13 -41 29 -59 l29
-33 141 -1 141 -2 25 30 c44 52 42 68 -20 255 -69 209 -85 237 -140 241 -29 2
-46 -3 -61 -17z"/>
<path d="M7668 1063 c-17 -19 -31 -56 -99 -253 -45 -131 -50 -180 -22 -218 26
-35 55 -41 198 -39 116 2 126 4 149 26 40 38 35 94 -24 262 -27 78 -60 163
-72 188 -22 44 -25 46 -69 49 -33 2 -49 -2 -61 -15z"/>
<path d="M8187 1063 c-22 -26 -48 -89 -102 -253 -51 -158 -53 -190 -9 -231 24
-23 33 -24 157 -25 73 -1 142 3 154 9 24 11 53 63 53 95 0 48 -124 391 -148
410 -24 18 -86 15 -105 -5z"/>
</g>
</svg>
